# AST/ASF file generated using VICON BodyLanguage
# -----------------------------------------------
:version 1.10
:name VICON
:units
  mass 1.0
  length 0.45
  angle deg
:documentation
   .ast/.asf automatically generated from VICON data using
   VICON BodyBuilder and BodyLanguage model FoxedUp or BRILLIANT.MOD
:root
   order TX TY TZ RX RY RZ
   axis XYZ
   position 0 0 0  
   orientation 0 0 0 
:bonedata
  begin
     id 1 
     name lhipjoint
     direction 0.578396 -0.714046 0.394458 
     length 2.21935 
     axis 0 0 0  XYZ
  end
  begin
     id 2 
     name lfemur
     direction 0.34202 -0.939693 0  
     length 6.39105  
     axis 0 0 20  XYZ
    dof rx ry rz
    limits (-160.0 20.0)
           (-70.0 70.0)
           (-60.0 70.0)
  end
  begin
     id 3 
     name ltibia
     direction 0.34202 -0.939693 0   
     length 6.99037   
     axis 0 0 20   XYZ
    dof rx
    limits (-10.0 170.0)
  end
  begin
     id 4 
     name lfoot
     direction 0.0582372 -0.160005 0.985397   
     length 2.06111   
     axis -90 7.62852e-016 20   XYZ
    dof rx rz
    limits (-45.0 90.0)
           (-70.0 20.0)
  end
  begin
     id 5 
     name ltoes
     direction 1.53556e-011 -4.21875e-011 1   
     length 1.04074   
     axis -90 7.62852e-016 20   XYZ
    dof rx
    limits (-90.0 20.0)
  end
  begin
     id 6 
     name rhipjoint
     direction -0.558179 -0.726269 0.40121   
     length 2.182  
     axis 0 0 0  XYZ 
  end
  begin
     id 7 
     name rfemur
     direction -0.34202 -0.939693 0   
     length 6.51172   
     axis 0 0 -20   XYZ
    dof rx ry rz
    limits (-160.0 20.0)
           (-70.0 70.0)
           (-70.0 60.0)
  end
  begin
     id 8 
     name rtibia
     direction -0.34202 -0.939693 0   
     length 7.02607   
     axis 0 0 -20   XYZ
    dof rx
    limits (-10.0 170.0)
 end
 begin
     id 9 
     name rfoot
     direction -0.0788856 -0.216737 0.973038   
     length 1.96734  
     axis -90 -7.62852e-016 -20   XYZ
    dof rx rz
    limits (-45.0 90.0)
           (-20.0 70.0)
  end
  begin
     id 10 
     name rtoes
     direction -1.53567e-011 -4.21783e-011 1   
     length 0.990825   
     axis -90 -7.62852e-016 -20   XYZ
    dof rx
    limits (-90.0 20.0)
  end
  begin
     id 11 
     name lowerback
     direction 0.00668177 0.999323 -0.0361741   
     length 1.7655   
     axis 0 0 0   XYZ
    dof rx ry rz
    limits (-20.0 45.0)
           (-30.0 30.0)
           (-30.0 30.0)
  end
  begin
     id 12 
     name upperback
     direction -0.00222086 0.99851 0.0545167   
     length 1.74912   
     axis 0 0 0   XYZ
    dof rx ry rz
    limits (-20.0 45.0)
           (-30.0 30.0)
           (-30.0 30.0)
  end
  begin
     id 13 
     name thorax
     direction -0.00733971 0.997496 0.0703443   
     length 1.75715   
     axis 0 0 0   XYZ
    dof rx ry rz
    limits (-20.0 45.0)
           (-30.0 30.0)
           (-30.0 30.0)
  end
  begin
     id 14 
     name lowerneck
     direction 0.0279797 0.994795 0.0979765   
     length 1.46939   
     axis 0 0 0   XYZ
    dof rx ry rz
    limits (-20.0 45.0)
           (-30.0 30.0)
           (-30.0 30.0)
  end
  begin
     id 15 
     name upperneck
     direction 0.00339187 0.976776 -0.214238   
     length 1.48018   
     axis 0 0 0   XYZ
    dof rx ry rz
    limits (-20.0 45.0)
           (-30.0 30.0)
           (-30.0 30.0)
  end
  begin
     id 16
     name head
     direction -0.00263506 0.996603 -0.0823096  
     length 1.4976  
     axis 0 0 0   XYZ
    dof rx ry rz
    limits (-20.0 45.0)
           (-30.0 30.0)
           (-30.0 30.0)
  end
  begin
     id 17 
     name lclavicle
     direction 0.894044 0.44508 -0.0508781  
     length 3.03024  
     axis 0 0 0   XYZ
    dof ry rz
    limits (-20.0 10.0)
           (0.0 20.0)
  end
  begin
     id 18 
     name lhumerus
     direction 1 -4.48961e-011 -2.39475e-018   
     length 4.4661   
     axis 180 -30 -90   XYZ
    dof rx ry rz
    limits (-60.0 90.0)
           (-90.0 90.0)
           (-90.0 90.0)
  end
  begin
     id 19
     name lradius
     direction 1 -4.48961e-011 9.29328e-028   
     length 3.41414   
     axis 180 -30 -90   XYZ
    dof rx
    limits (-10.0 170.0)
  end
  begin
     id 20
     name lwrist
     direction 1 -4.48985e-011 1.53461e-026   
     length 1.70707   
     axis -1.09697e-014 90 90   XYZ
    dof ry
    limits (-180.0 0.0)
 end
  begin
     id 21 
     name lhand
     direction 1 -4.48966e-011 3.06923e-026   
     length 0.328298   
     axis -1.95843e-014 90 90   XYZ
    dof rx rz
    limits (-90.0 90.0)
           (-45.0 45.0)
  end
  begin
     id 22 
     name lfingers
     direction 1 -4.48893e-011 6.13845e-026   
     length 0.264682   
     axis -3.91686e-014 90 90   XYZ
    dof rx
    limits (0.0 90.0)
  end
  begin
     id 23
     name lthumb
     direction 0.707107 -6.34876e-011 0.707107   
     length 0.380032   
     axis -90 45 2.85299e-015   XYZ
    dof rx rz
    limits (-45.0 45.0)
           (-45.0 45.0)
  end
  begin
     id 24 
     name rclavicle
     direction -0.936955 0.347862 -0.0332887   
     length 3.26927  
     axis 0 0 0   XYZ 
    dof ry rz
    limits (-10.0 20.0)
           (-20.0 0.0)
  end
  begin
     id 25 
     name rhumerus
     direction -1 -4.4896e-011 1.78637e-018  
     length 4.40431   
     axis 180 30 90   XYZ
    dof rx ry rz
    limits (-90.0 60.0)
           (-90.0 90.0)
           (-90.0 90.0)
  end
  begin
     id 26 
     name rradius
     direction -1 -4.48955e-011 9.34036e-027   
     length 3.04688   
     axis 180 30 90   XYZ
    dof rx
    limits (-10.0 170.0)
  end
  begin
     id 27 
     name rwrist
     direction -1 -4.49011e-011 1.53461e-026   
     length 1.52344   
     axis -1.09697e-014 -90 -90   XYZ
    dof ry
    limits (-180.0 0.0)
  end
  begin
     id 28
     name rhand
     direction -1 -4.48834e-011 3.06923e-026   
     length 0.500489   
     axis -1.95843e-014 -90 -90   XYZ
    dof rx rz
    limits (-90.0 90.0)
           (-45.0 45.0)
  end
  begin
     id 29
     name rfingers
     direction -1 -4.48967e-011 6.13845e-026   
     length 0.403507   
     axis -3.91686e-014 -90 -90   XYZ
    dof rx
    limits (0.0 90.0)
  end
  begin
     id 30
     name rthumb
     direction -0.707107 -6.34826e-011 0.707107   
     length 0.579358   
     axis -90 -45 -2.85299e-015   XYZ
    dof rx rz
    limits (-45.0 45.0)
           (-45.0 45.0)
  end
:hierarchy
  begin
    root lhipjoint rhipjoint lowerback
    lhipjoint lfemur
    lfemur ltibia
    ltibia lfoot
    lfoot ltoes
    rhipjoint rfemur
    rfemur rtibia
    rtibia rfoot
    rfoot rtoes
    lowerback upperback
    upperback thorax
    thorax lowerneck lclavicle rclavicle
    lowerneck upperneck
    upperneck head
    lclavicle lhumerus
    lhumerus lradius
    lradius lwrist
    lwrist lhand lthumb
    lhand lfingers
    rclavicle rhumerus
    rhumerus rradius
    rradius rwrist
    rwrist rhand rthumb
    rhand rfingers
  end

#!OML:ASF H:\IndianDance\Patient Classification 1\Patient 1\Session 1\dancer.ASF
:FULLY-SPECIFIED
:DEGREES
550
root -5.02884 15.7768 7.58118 -170.498 6.7621 -175.935
lowerback 4.74146 3.49674 -1.0111
upperback -8.14561 5.06412 -0.77555
thorax -11.4012 2.69457 -1.04768
lowerneck -19.6266 0.706618 -1.56334
upperneck 20.5218 -1.57062 9.93558
head 9.87956 0.0865598 3.50384
rclavicle -3.77194e-014 6.36111e-015
rhumerus -9.20734 -39.5418 -40.6334
rradius 49.3509
rwrist -80.4592
rhand -25.1816 -20.4472
rfingers 7.12502
rthumb 1.33614 -50.4228
lclavicle -3.77194e-014 6.36111e-015
lhumerus 24.8869 50.9223 47.7934
lradius 24.7018
lwrist 41.6771
lhand -7.89368 -319.106
lfingers 7.12502
lthumb 18.0111 -289.92
rfemur -39.7637 -24.5521 23.9909
rtibia 59.3353
rfoot 8.24294 9.45331
rtoes -8.29971
lfemur -28.9762 21.5273 -21.1913
ltibia 46.4657
lfoot -3.65507 -3.02013
ltoes -2.4799
551
root -4.99642 15.7518 7.56024 -170.606 7.35931 -176.269
lowerback 4.71176 3.60253 -1.54921
upperback -8.18014 5.14915 -0.871992
thorax -11.4643 2.7781 -0.86824
lowerneck -19.6352 0.755716 -1.44302
upperneck 20.8862 -1.59015 9.89623
head 10.0117 0.0799125 3.47592
rclavicle 5.2181e-015 9.54166e-015
rhumerus -7.02201 -38.8767 -42.3982
rradius 47.8576
rwrist -79.4818
rhand -25.038 -21.5122
rfingers 7.12502
rthumb 1.47488 -51.4869
lclavicle 5.2181e-015 9.54166e-015
lhumerus 25.6942 49.6344 48.5309
lradius 24.2167
lwrist 41.8116
lhand -7.58222 -318.474
lfingers 7.12502
lthumb 18.3108 -289.316
rfemur -40.2794 -24.2569 23.54
rtibia 60.0523
rfoot 7.24781 9.76651
rtoes -9.62993
lfemur -28.5385 22.0405 -21.4113
ltibia 46.2448
lfoot -4.20077 -3.00034
ltoes -3.92268
552
root -4.95823 15.7288 7.538 -170.665 7.78528 -176.631
lowerback 4.60634 3.64384 -2.11473
upperback -8.22525 5.14868 -0.996285
thorax -11.4939 2.82457 -0.686136
lowerneck -19.6833 0.809758 -1.27559
upperneck 21.2656 -1.61974 9.84809
head 10.1581 0.072127 3.43634
rclavicle -2.33075e-014 -5.40694e-014
rhumerus -5.02498 -37.9702 -44.1426
rradius 46.494
rwrist -78.3543
rhand -24.8667 -22.3773
rfingers 7.12502
rthumb 1.64027 -52.3508
lclavicle -2.33075e-014 -5.40694e-014
lhumerus 26.3648 48.1806 49.1004
lradius 23.9364
lwrist 42.2465
lhand -7.58288 -317.685
lfingers 7.12502
lthumb 18.3101 -288.527
rfemur -40.7168 -23.9806 23.1408
rtibia 60.5045
rfoot 6.25855 9.73804
rtoes -10.5737
lfemur -28.2886 22.6076 -21.6729
ltibia 46.1669
lfoot -4.59309 -3.07282
ltoes -4.72006
553
root -4.91509 15.709 7.51471 -170.674 8.01255 -176.974
lowerback 4.44128 3.6239 -2.64743
upperback -8.27689 5.07477 -1.13324
thorax -11.4891 2.83484 -0.520669
lowerneck -19.7637 0.853867 -1.0895
upperneck 21.6375 -1.66875 9.79624
head 10.3102 0.0574457 3.38968
rclavicle -3.00165e-014 -1.51076e-014
rhumerus -3.25616 -36.76 -45.7495
rradius 45.2367
rwrist -77.0805
rhand -24.7152 -23.0855
rfingers 7.12502
rthumb 1.78659 -53.0577
lclavicle -3.00165e-014 -1.51076e-014
lhumerus 26.8743 46.5005 49.468
lradius 23.8065
lwrist 42.7326
lhand -7.67913 -316.777
lfingers 7.12502
lthumb 18.2176 -287.611
rfemur -41.0314 -23.7248 22.8268
rtibia 60.6385
rfoot 5.42078 9.35229
rtoes -10.9543
lfemur -28.2286 23.1768 -21.9219
ltibia 46.2527
lfoot -4.84214 -3.22433
ltoes -4.72781
554
root -4.86853 15.6928 7.49081 -170.647 8.01765 -177.259
lowerback 4.24476 3.53385 -3.08656
upperback -8.32726 4.92019 -1.2731
thorax -11.4514 2.79944 -0.395371
lowerneck -19.8669 0.893773 -0.877457
upperneck 21.986 -1.72778 9.73596
head 10.4597 0.0402172 3.33366
rclavicle 7.14631e-014 -2.22639e-014
rhumerus -1.71937 -35.2562 -47.2116
rradius 44.1028
rwrist -75.6557
rhand -24.6381 -23.7331
rfingers 7.12502
rthumb 1.8611 -53.7048
lclavicle 7.14631e-014 -2.22639e-014
lhumerus 27.2334 44.6129 49.6317
lradius 23.7822
lwrist 43.059
lhand -7.72652 -315.78
lfingers 7.12502
lthumb 18.172 -286.609
rfemur -41.1721 -23.508 22.6189
rtibia 60.4365
rfoot 4.72309 8.78657
rtoes -10.8475
lfemur -28.3403 23.6959 -22.1046
ltibia 46.5171
lfoot -4.93775 -3.46962
ltoes -4.16849
555
root -4.81973 15.6797 7.46698 -170.603 7.79763 -177.452
lowerback 4.05364 3.39594 -3.38201
upperback -8.36488 4.71664 -1.39954
thorax -11.3871 2.72827 -0.327255
lowerneck -19.9875 0.902361 -0.705546
upperneck 22.2876 -1.81416 9.68843
head 10.5981 0.00987952 3.28398
rclavicle 4.8901e-014 1.11319e-014
rhumerus -0.464031 -33.4489 -48.4205
rradius 43.1423
rwrist -74.2311
rhand -24.6259 -24.4895
rfingers 7.12502
rthumb 1.87291 -54.461
lclavicle 4.8901e-014 1.11319e-014
lhumerus 27.3871 42.373 49.5262
lradius 23.8528
lwrist 43.2795
lhand -7.63591 -314.753
lfingers 7.12502
lthumb 18.2591 -285.59
rfemur -41.0937 -23.3313 22.5339
rtibia 59.9311
rfoot 4.17776 8.18389
rtoes -10.3491
lfemur -28.6013 24.1342 -22.1673
ltibia 46.9744
lfoot -4.8803 -3.79503
ltoes -3.50741
556
root -4.77014 15.669 7.44399 -170.561 7.36075 -177.54
lowerback 3.89636 3.21886 -3.51202
upperback -8.38115 4.47388 -1.50421
thorax -11.3036 2.62312 -0.322583
lowerneck -20.1202 0.875188 -0.600791
upperneck 22.5294 -1.92524 9.66476
head 10.7195 -0.0332616 3.24923
rclavicle -5.96354e-016 -6.36111e-015
rhumerus 0.517285 -31.3885 -49.3689
rradius 42.4044
rwrist -72.8978
rhand -24.7158 -25.3902
rfingers 7.12502
rthumb 1.78603 -55.3625
lclavicle -5.96354e-016 -6.36111e-015
lhumerus 27.3809 39.7995 49.196
lradius 24.005
lwrist 43.3926
lhand -7.36371 -313.722
lfingers 7.12502
lthumb 18.521 -284.584
rfemur -40.7796 -23.1993 22.5618
rtibia 59.1913
rfoot 3.75736 7.59845
rtoes -9.66492
lfemur -28.9985 24.466 -22.0866
ltibia 47.6394
lfoot -4.67767 -4.17779
ltoes -3.13783
557
root -4.72023 15.6586 7.42241 -170.543 6.73549 -177.52
lowerback 3.79568 3.01584 -3.4827
upperback -8.36834 4.20573 -1.57593
thorax -11.2097 2.49054 -0.369401
lowerneck -20.2508 0.812325 -0.575946
upperneck 22.696 -2.05218 9.66298
head 10.8144 -0.0866809 3.23162
rclavicle 1.15295e-014 -4.77083e-014
rhumerus 1.24492 -29.0874 -50.0397
rradius 41.9378
rwrist -71.8624
rhand -24.8213 -26.5387
rfingers 7.12502
rthumb 1.68416 -56.5118
lclavicle 1.15295e-014 -4.77083e-014
lhumerus 27.1883 36.8422 48.5964
lradius 24.2798
lwrist 43.5923
lhand -6.76159 -312.615
lfingers 7.12502
lthumb 19.1001 -283.533
rfemur -40.2308 -23.104 22.6976
rtibia 58.3065
rfoot 3.30837 7.14771
rtoes -8.98534
lfemur -29.5141 24.6866 -21.846
ltibia 48.5215
lfoot -4.35527 -4.584
ltoes -3.21424
558
root -4.67064 15.6466 7.40264 -170.562 5.95314 -177.409
lowerback 3.76696 2.801 -3.32383
upperback -8.3287 3.92706 -1.61231
thorax -11.1223 2.34028 -0.452183
lowerneck -20.3641 0.713023 -0.634384
upperneck 22.7838 -2.19127 9.67669
head 10.8781 -0.150154 3.22969
rclavicle -5.32743e-014 3.57812e-014
rhumerus 1.74071 -26.5676 -50.3987
rradius 41.7511
rwrist -71.243
rhand -24.9087 -27.8338
rfingers 7.12502
rthumb 1.59977 -57.8075
lclavicle -5.32743e-014 3.57812e-014
lhumerus 26.9227 33.5844 47.8439
lradius 24.665
lwrist 43.9053
lhand -6.00164 -311.59
lfingers 7.12502
lthumb 19.8308 -282.581
rfemur -39.4947 -23.0638 22.9281
rtibia 57.373
rfoot 2.74014 6.87463
rtoes -8.45081
lfemur -30.1419 24.787 -21.4651
ltibia 49.6191
lfoot -3.94366 -4.97005
ltoes -3.90479
